<?xml version="1.0" encoding="utf-8"?>
<!-- Generator: Adobe Illustrator 26.5.0, SVG Export Plug-In . SVG Version: 6.00 Build 0)  -->
<svg version="1.1" id="Слой_1" xmlns="http://www.w3.org/2000/svg" xmlns:xlink="http://www.w3.org/1999/xlink" x="0px" y="0px"
	 viewBox="0 0 788.9 463.7" style="enable-background:new 0 0 788.9 463.7;" xml:space="preserve">
<style type="text/css">
	.st0{fill:#FFFFFF;}
	.st1{fill:#E2E2E1;}
</style>
<g id="Layer_6">
	<rect y="0" class="st0" width="788.9" height="463.7"/>
</g>
<path class="st1" d="M394.4,225.3c-18.5,0-33.7-5.9-45.5-17.7c-11.8-11.8-17.7-27-17.7-45.5s5.9-33.7,17.7-45.5
	c11.8-11.8,27-17.7,45.5-17.7s33.7,5.9,45.5,17.7c11.8,11.8,17.7,27,17.7,45.5s-5.9,33.7-17.7,45.5
	C428.1,219.5,413,225.3,394.4,225.3z M259.7,360.5v-39.6c0-10.7,2.7-19.8,8-27.4c5.3-7.6,12.2-13.3,20.6-17.3
	c18.8-8.4,36.8-14.7,54.1-18.9c17.3-4.2,34.6-6.3,52-6.3s34.7,2.2,51.8,6.5c17.1,4.4,35.1,10.6,53.9,18.8c8.8,4,15.8,9.7,21.1,17.3
	c5.3,7.5,8,16.6,8,27.3v39.6H259.7z M284.9,335.3h219v-14.3c0-4.5-1.3-8.8-4-12.8c-2.7-4.1-6-7.1-9.9-9.1
	c-18-8.7-34.4-14.7-49.3-17.9s-30.3-4.8-46.3-4.8s-31.6,1.6-46.7,4.8c-15.2,3.2-31.6,9.2-49.3,17.9c-3.9,2-7.2,5-9.7,9.1
	c-2.5,4.1-3.8,8.4-3.8,12.8V335.3z M394.4,200.1c10.9,0,20-3.6,27.2-10.7c7.2-7.2,10.7-16.2,10.7-27.2s-3.6-20-10.7-27.2
	c-7.2-7.2-16.2-10.7-27.2-10.7s-20,3.6-27.2,10.7c-7.2,7.2-10.7,16.2-10.7,27.2s3.6,20,10.7,27.2
	C374.4,196.5,383.5,200.1,394.4,200.1z"/>
</svg>
