<svg xmlns="http://www.w3.org/2000/svg" viewBox="0 0 788.87 463.7"><defs><style>.cls-1{fill:#fff;}.cls-2,.cls-3{fill:#e2e2e1;}.cls-3{stroke:#e2e2e1;stroke-miterlimit:10;}</style></defs><g id="Layer_6" data-name="Layer 6"><rect class="cls-1" width="788.87" height="463.7"/></g><g id="Layer_2" data-name="Layer 2"><path class="cls-2" d="M311.32,52.15a423.63,423.63,0,0,0,46.6,15.55c5.48,1.47,11,2.8,16.6,3.8,5.15.92,10.12,1.63,14.74,4.27,8.65,5,13.88,14.22,14.55,24.08.7,10.45-3.11,23.25-10.89,30.58-5.92,5.59-14.72,6.41-22.45,5.38-17.89-2.38-37-13.86-46.69-29.2-7-11-8.14-26-8.24-38.75-.05-6.34.16-13.06,1.93-19.2s-7.86-8.85-9.65-2.66c-1.83,6.35-2.22,13.35-2.28,19.91-.13,13.32,1.22,28.59,6.89,40.79,8.93,19.19,30.66,33.26,50.8,37.89,9.81,2.25,20.42,2.43,29.63-2.08,10.39-5.08,16.56-16.8,19.38-27.55,3-11.6,1.92-24.47-4.48-34.77-6.51-10.45-16.82-16-28.71-18C356.82,58.48,334.88,50.81,314,42.5,308,40.13,305.4,49.8,311.32,52.15Z"/><path class="cls-2" d="M477.8,109.51a243.22,243.22,0,0,0-7.42,36.91c-.83,7.12.52,15.08-3.91,21.19-4.74,6.55-13.12,10-20.91,11-7.35,1-18.4.71-24.23-4.62-4-3.7-4.53-9.75-3.84-14.87,1.74-13,10.68-26.37,22.21-32.68,9-5,20.1-7.63,30.21-9.38a64.52,64.52,0,0,1,12.71-1.18c6.44.18,6.43-9.82,0-10-15.28-.43-32.46,4.46-46.06,11-14.61,7-25.85,23.15-28.6,39-1.23,7-1,14.68,2.82,20.93,4.59,7.52,12.83,10.32,21.14,11.55,17.85,2.65,42.61-4.2,47.09-24.38,1.06-4.8.62-9.85,1.08-14.72a172.14,172.14,0,0,1,2.78-17.62c1.31-6.49,2.79-13,4.57-19.33C489.17,106,479.53,103.31,477.8,109.51Z"/><path class="cls-2" d="M397.88,132.22,349.83,76.79c-4.22-4.87-11.27,2.23-7.07,7.07l48,55.43c4.23,4.87,11.27-2.23,7.08-7.07Z"/><path class="cls-2" d="M429.88,178.08l25.5-34.39c3.83-5.17-4.84-10.17-8.64-5.05L421.25,173c-3.84,5.17,4.84,10.16,8.63,5.05Z"/></g><g id="Layer_3" data-name="Layer 3"><path class="cls-3" d="M525,152.08c-16.5,0-29.87,19.44-29.87,43.43,0,16.58,6.39,31,15.78,38.31V347.53A14.09,14.09,0,0,0,525,361.62h0A14.09,14.09,0,0,0,539,347.53V233.82c9.39-7.32,15.78-21.73,15.78-38.31C554.82,171.52,541.45,152.08,525,152.08Zm-5.4,193.32c-.21-39.22,1-82.77.78-122-6-5.53-14.6-11.74-14.6-24.28,0-18.14,8.61-32.85,19.22-32.85s19.22,14.71,19.22,32.85c0,12.54-8.21,19-14.25,24.58.08,39,.41,82.55.49,121.59,0,0-.4,7.57-5.46,7.57S519.55,345.4,519.55,345.4Z"/><path class="cls-3" d="M291.46,147.24h-3.67a3.06,3.06,0,0,0-3.06,3.06V188H270.42V150.3a3.06,3.06,0,0,0-3.06-3.06h-4.6a3.06,3.06,0,0,0-3.07,3.06V188H245.38V150.28a3,3,0,0,0-3-3h-4.52a3,3,0,0,0-3,3V211h0c.34,7.39,6.62,13.78,15.76,17.07V347.38A14.34,14.34,0,0,0,264,361.85a14.08,14.08,0,0,0,14.76-14.07V228.05c9.14-3.29,15.43-9.68,15.76-17.07h0V150.3A3.06,3.06,0,0,0,291.46,147.24Zm-6.6,61.11a9.78,9.78,0,0,1-9.78,9.78h-1a4.31,4.31,0,0,0-4.3,4.3V348.31a5.33,5.33,0,0,1-4.68,5.38,5.18,5.18,0,0,1-5.69-5.16V222.43a4.31,4.31,0,0,0-4.31-4.3h0a9.78,9.78,0,0,1-9.78-9.78v-9.78h39.52Z"/></g><g id="Layer_4" data-name="Layer 4"><path class="cls-2" d="M378.26,167.61l7.43,25.83,3.5-6.15L352.8,199.42l6.15,6.15,5.58-33.26L361,175.8l23.37-4.7c6.3-1.26,3.64-10.9-2.66-9.64l-23.37,4.7a4.86,4.86,0,0,0-3.49,3.49l-5.59,33.26c-.58,3.48,2.2,7.47,6.15,6.15l36.39-12.13a5.1,5.1,0,0,0,3.5-6.15L387.9,165C386.13,158.78,376.47,161.41,378.26,167.61Z"/><path class="cls-2" d="M283.28,241.55c.09.8.21,1.6.32,2.4l-.18-1.33c0,.11,0,.22,0,.33l9.83-1.33a4.26,4.26,0,0,1-.13-.62l.18,1.33a5.12,5.12,0,0,1-.06-.78,3.68,3.68,0,0,0-.43-1.93,3.75,3.75,0,0,0-1-1.61,3.69,3.69,0,0,0-1.61-1,3.75,3.75,0,0,0-1.93-.43,5.06,5.06,0,0,0-3.53,1.46,5.2,5.2,0,0,0-1.47,3.54,11,11,0,0,0,.36,2.73,5.67,5.67,0,0,0,2.3,3l1.2.5a3.74,3.74,0,0,0,2,.09,2.53,2.53,0,0,0,1.26-.34,3.71,3.71,0,0,0,1.61-1l.78-1a5,5,0,0,0,.68-2.52l-.27-2.09.17,1.33c0-.21-.05-.43-.08-.64a3.68,3.68,0,0,0-.43-1.93,3.75,3.75,0,0,0-1-1.61,3.69,3.69,0,0,0-1.61-1,3.75,3.75,0,0,0-1.93-.43,5.06,5.06,0,0,0-3.53,1.46l-.78,1A5.11,5.11,0,0,0,283.28,241.55Z"/><path class="cls-2" d="M495.54,241.73a3.64,3.64,0,0,1,0,.57l.18-1.33a4.37,4.37,0,0,1-.09.5l9.65,2.66c.11-.8.23-1.6.3-2.4a3.68,3.68,0,0,0-.43-1.93,3.75,3.75,0,0,0-1-1.61,3.69,3.69,0,0,0-1.61-1,3.75,3.75,0,0,0-1.93-.43l-1.32.18a4.89,4.89,0,0,0-2.21,1.28l-.78,1a5.11,5.11,0,0,0-.69,2.53c0,.25-.05.49-.08.74l.18-1.33c0,.11,0,.22-.05.33a3.85,3.85,0,0,0-.09,2,3.66,3.66,0,0,0,.6,1.86,5.67,5.67,0,0,0,3,2.3l1.32.18a5,5,0,0,0,2.53-.68l1-.79a5,5,0,0,0,1.29-2.2,11.51,11.51,0,0,0,.3-2.4,3.68,3.68,0,0,0-.43-1.93,3.75,3.75,0,0,0-1-1.61,3.69,3.69,0,0,0-1.61-1,3.75,3.75,0,0,0-1.93-.43l-1.32.18a4.89,4.89,0,0,0-2.21,1.28l-.78,1A5.11,5.11,0,0,0,495.54,241.73Z"/><path class="cls-2" d="M487.72,274.38c-5.31,21.53-12.46,45.41-28.86,61.33-10.56,10.25-24.38,14.58-38.78,15.82a356.12,356.12,0,0,1-47.9.4c-14.52-.71-29.5-3.32-41.23-12.53-19.47-15.27-26-42.44-30-65.55l-7.35,5.65c8.61,4.77,18.49,7.23,28.06,9.17a321.86,321.86,0,0,0,43.1,5.38c32.11,2.07,64.91,1.3,96.67-4.16,11.44-2,23.24-4.49,33.63-9.86,5.72-3,.66-11.59-5.05-8.64-8.33,4.31-17.92,6.35-27.07,8.1a319,319,0,0,1-41.83,4.79c-30.3,1.69-61.35,1.07-91.3-4.22-10.48-1.85-21.76-4-31.16-9.2-4.07-2.26-8.07,1.45-7.35,5.65,4,23.31,10.81,48.9,28.2,66.07,12.15,12,28.14,17.11,44.79,18.78s34.23,1.44,51,.51c16.51-.92,32.69-4.47,45.89-15,21-16.66,30-44.9,36.16-69.87C498.91,270.79,489.27,268.12,487.72,274.38Z"/><path class="cls-2" d="M463.61,229.17c10.75,2.13,22.72,4.34,31.38,11.45,1,.8.29,2,1.1-.33a8,8,0,0,1-3.43,4.27c-4.88,3.38-11,5.09-16.65,6.64-26.62,7.25-55.12,8.55-82.56,8.5-27.21-.06-55.56-1.39-81.89-8.85-5.46-1.55-11.56-3.25-16.1-6.79a9.44,9.44,0,0,1-1.95-1.94c-.61-.85-.12.2-.23-.51,0-.31.28-.67.84-1.27,4.59-4.9,13.14-6.84,19.39-8.51,30.71-8.19,63.8-9,95.38-8.1,6.44.18,6.44-9.82,0-10-32.44-.9-66.49.05-98,8.46-8.12,2.17-18,4.93-24,11.28-7.72,8.19-.91,17.27,7.4,21.53,12.05,6.17,26.18,8.62,39.45,10.57a404.78,404.78,0,0,0,51.11,4c31.86.63,65.83-.39,96.61-9.55,7-2.07,15.1-4.69,20.32-10.07,3.51-3.61,5.18-8.19,2.59-13.22-2.39-4.65-7.37-7.51-12-9.58-8.29-3.75-17.21-5.89-26.1-7.65-6.29-1.24-9,8.39-2.66,9.64Z"/><path class="cls-2" d="M495.58,241.49a177,177,0,0,1-7.86,32.89l2.3-3c-8.33,4.31-17.92,6.35-27.07,8.1a319,319,0,0,1-41.83,4.79c-30.3,1.69-61.35,1.07-91.3-4.22-10.48-1.85-21.76-4-31.16-9.2l2.3,3a175.79,175.79,0,0,1-7.67-32.23l-9.65,2.66c4,12,21.5,15.52,32.27,18,15.09,3.48,30.62,5.24,46,6.32,35.16,2.45,71.61,1.75,106.25-5.3a120.45,120.45,0,0,0,21.26-6c6.34-2.56,13.58-6.09,15.76-13.12,1.9-6.17-7.75-8.8-9.65-2.66-1.38,4.49-10.51,6.91-14.21,8.11a141.08,141.08,0,0,1-15.82,4.05,306.38,306.38,0,0,1-42.91,5.22c-31.24,1.87-63.33,1.29-94.21-4.23A167.09,167.09,0,0,1,310,250.38c-4.27-1.27-15-3.72-16.66-8.76-2.1-6.26-10.54-3.59-9.65,2.66,1.5,10.51,3.23,22.48,7.67,32.23,2.28,5,10.62,6.9,15.48,8.43,16.13,5.05,33.3,7.11,50.08,8.52a459.35,459.35,0,0,0,66.05.71c17.9-1.07,36.05-3,53.47-7.42,5.84-1.48,14.45-3.12,19.18-7.12,2-1.68,2.54-4.72,3.3-7.11q1.45-4.61,2.64-9.28a179.71,179.71,0,0,0,3.72-19.09C506.11,237.85,496.48,235.13,495.58,241.49Z"/><path class="cls-2" d="M324,316.56c7.49,14.45,23.17,24.86,39,27.27,6.3,1,9-8.68,2.66-9.64-13.53-2.06-26.62-10.28-33-22.68-3-5.72-11.59-.66-8.63,5.05Z"/><path class="cls-2" d="M434.28,217.23l11.05,18,.78-6.06-16.79,16.3,8.36,2.21-5.88-26.14-2.3,5.65L441.12,219c5.23-3.66.23-12.34-5.05-8.63l-11.61,8.14a5.21,5.21,0,0,0-2.3,5.65L428,250.32c.84,3.76,5.77,4.72,8.35,2.2l16.79-16.3a5.07,5.07,0,0,0,.78-6.06l-11-18C439.54,206.71,430.89,211.73,434.28,217.23Z"/></g></svg>