<svg width="50" height="50" viewBox="0 0 50 50" fill="none" xmlns="http://www.w3.org/2000/svg">
<circle cx="25" cy="25" r="25" fill="white"/>
<path d="M24.9999 24.555C23.1907 24.555 21.7105 23.9618 20.5591 22.7752C19.4078 21.5887 18.8322 20.0631 18.8322 18.1986C18.8322 16.334 19.4078 14.8085 20.5591 13.6219C21.7105 12.4354 23.1907 11.8421 24.9999 11.8421C26.8091 11.8421 28.2894 12.4354 29.4407 13.6219C30.592 14.8085 31.1677 16.334 31.1677 18.1986C31.1677 20.0631 30.592 21.5887 29.4407 22.7752C28.2894 23.9618 26.8091 24.555 24.9999 24.555ZM11.842 38.1579V34.1745C11.842 33.101 12.1025 32.1828 12.6233 31.42C13.1441 30.6573 13.8157 30.0781 14.6381 29.6826C16.4747 28.8351 18.236 28.1994 19.9218 27.7757C21.6077 27.3519 23.3004 27.14 24.9999 27.14C26.6995 27.14 28.3854 27.359 30.0575 27.7968C31.7297 28.2347 33.484 28.8633 35.3207 29.6826C36.1704 30.0781 36.8557 30.6573 37.3766 31.42C37.8974 32.1828 38.1578 33.101 38.1578 34.1745V38.1579H11.842ZM14.3091 35.6153H35.6907V34.1745C35.6907 33.7225 35.5605 33.2917 35.3001 32.882C35.0397 32.4724 34.7176 32.1687 34.3338 31.9709C32.5794 31.0951 30.9758 30.4948 29.523 30.1699C28.0701 29.845 26.5624 29.6826 24.9999 29.6826C23.4374 29.6826 21.9161 29.845 20.4358 30.1699C18.9555 30.4948 17.3519 31.0951 15.6249 31.9709C15.2412 32.1687 14.9259 32.4724 14.6792 32.882C14.4325 33.2917 14.3091 33.7225 14.3091 34.1745V35.6153ZM24.9999 22.0125C26.069 22.0125 26.9531 21.6523 27.6521 20.9319C28.3511 20.2115 28.7006 19.3004 28.7006 18.1986C28.7006 17.0968 28.3511 16.1857 27.6521 15.4653C26.9531 14.7449 26.069 14.3847 24.9999 14.3847C23.9309 14.3847 23.0468 14.7449 22.3478 15.4653C21.6488 16.1857 21.2993 17.0968 21.2993 18.1986C21.2993 19.3004 21.6488 20.2115 22.3478 20.9319C23.0468 21.6523 23.9309 22.0125 24.9999 22.0125Z" fill="#289672"/>
</svg>
