<svg width="40" height="40" viewBox="0 0 40 40" fill="none" xmlns="http://www.w3.org/2000/svg">
<path d="M33 34.9722L22.1945 24.1666C21.3611 24.8703 20.3939 25.4213 19.2928 25.8194C18.1917 26.2176 17.02 26.4166 15.7778 26.4166C12.7655 26.4166 10.2162 25.3726 8.12971 23.2847C6.04324 21.1967 5 18.6666 5 15.6944C5 12.7222 6.04399 10.1921 8.13196 8.10413C10.2199 6.01615 12.7546 4.97217 15.7361 4.97217C18.7176 4.97217 21.2477 6.01615 23.3264 8.10413C25.4051 10.1921 26.4445 12.7236 26.4445 15.6986C26.4445 16.8995 26.25 18.0509 25.8611 19.1528C25.4722 20.2546 24.9074 21.2685 24.1667 22.1944L35 32.9722L33 34.9722ZM15.75 23.6389C17.9491 23.6389 19.8183 22.8634 21.3576 21.3125C22.897 19.7615 23.6667 17.8889 23.6667 15.6944C23.6667 13.4999 22.897 11.6273 21.3576 10.0763C19.8183 8.52542 17.9491 7.74996 15.75 7.74996C13.5355 7.74996 11.6532 8.52542 10.103 10.0763C8.55283 11.6273 7.77775 13.4999 7.77775 15.6944C7.77775 17.8889 8.55283 19.7615 10.103 21.3125C11.6532 22.8634 13.5355 23.6389 15.75 23.6389Z" fill="#BDBDBD"/>
</svg>
