<svg width="170" height="52" viewBox="0 0 170 52" fill="none" xmlns="http://www.w3.org/2000/svg">
<path d="M73.7487 42.4481C105.38 61.8151 160.237 46.5735 159.851 41.493C150.171 41.9938 153.141 37.9758 150.437 39.5392C115.845 56.6231 88.7504 47.3296 82.5875 39.9299C78.9358 34.3941 70.7759 39.3509 73.7487 42.4481Z" fill="white"/>
<path d="M57.5325 10C58.8676 10 60.3634 10.0875 62.02 10.2626C63.7012 10.4127 65.3083 10.7629 66.8412 11.3131L66.3591 16.5281C65.2465 16.5031 63.8619 16.4906 62.2054 16.4906C60.5736 16.4656 58.9542 16.4531 57.3471 16.4531C56.8773 16.4531 56.4817 16.4656 56.1603 16.4906C55.8636 16.5156 55.6288 16.5656 55.4557 16.6406C55.2826 16.7157 55.159 16.8157 55.0848 16.9408C55.0107 17.0658 54.9736 17.2284 54.9736 17.4285C54.9736 17.7787 55.1219 18.0788 55.4186 18.3289C55.74 18.554 56.3334 18.8417 57.1987 19.1919L61.8345 21.1428C63.9608 22.0682 65.4443 23.1437 66.2849 24.3693C67.1502 25.5699 67.5829 27.1206 67.5829 29.0215C67.5829 30.4722 67.4099 31.7103 67.0637 32.7358C66.7176 33.7362 66.1366 34.5491 65.3207 35.1744C64.5295 35.7747 63.4663 36.2124 62.1312 36.4875C60.7961 36.7877 59.1272 36.9377 57.1246 36.9377C56.2592 36.9377 54.9488 36.8627 53.1934 36.7126C51.438 36.5876 49.4477 36.2374 47.2225 35.6621L47.7046 29.9594C49.1881 29.9845 50.5479 30.022 51.7841 30.072C53.0204 30.097 54.0835 30.122 54.9736 30.147C55.8884 30.147 56.5683 30.147 57.0133 30.147C57.7056 30.147 58.2248 30.122 58.5709 30.072C58.9418 30.022 59.189 29.9344 59.3127 29.8094C59.461 29.6593 59.5352 29.4717 59.5352 29.2466C59.5352 28.9965 59.4857 28.7964 59.3868 28.6463C59.2879 28.4712 59.1149 28.3087 58.8676 28.1586C58.6204 28.0085 58.2619 27.8459 57.7921 27.6709L52.7113 25.4198C50.6345 24.4693 49.1634 23.4063 48.298 22.2308C47.4327 21.0552 47 19.517 47 17.6161C47 16.1404 47.1854 14.9148 47.5563 13.9394C47.9519 12.9639 48.5576 12.1885 49.3735 11.6133C50.1894 11.038 51.2649 10.6253 52.6 10.3752C53.9599 10.1251 55.604 10 57.5325 10Z" fill="white"/>
<path d="M84.5815 17.1284C88.2407 17.1284 90.0703 18.8792 90.0703 22.3809V36.4125H82.2822V24.8945C82.2822 24.4693 82.1833 24.1817 81.9855 24.0316C81.7877 23.8566 81.4415 23.769 80.947 23.769C80.4773 23.769 79.9457 23.8065 79.3523 23.8816C78.7837 23.9566 78.0296 24.1567 77.0901 24.4819L76.2742 21.0677C77.5845 19.7421 78.9567 18.7541 80.3907 18.1038C81.8495 17.4535 83.2464 17.1284 84.5815 17.1284ZM77.906 10.1501L77.943 15.7402C77.943 16.8657 77.8565 17.9538 77.6834 19.0043C77.5351 20.0297 77.362 20.8551 77.1642 21.4804L77.906 21.9306V36.4125H70.1178V10.1501H77.906Z" fill="white"/>
<path d="M103.017 17.1284C106.503 17.1284 108.975 17.6911 110.434 18.8167C111.893 19.9422 112.635 21.6055 112.659 23.8065C112.684 25.5574 112.165 26.8205 111.102 27.5958C110.063 28.3712 108.184 28.7589 105.465 28.7589H95.4884V25.0446H103.276C104.117 25.0446 104.649 24.9696 104.871 24.8195C105.094 24.6444 105.205 24.2442 105.205 23.6189C105.205 23.0187 105.057 22.631 104.76 22.4559C104.463 22.2808 103.956 22.1933 103.239 22.1933C102.522 22.1683 101.978 22.2433 101.608 22.4184C101.237 22.5935 100.977 22.9811 100.829 23.5814C100.705 24.1567 100.643 25.0696 100.643 26.3202C100.643 27.4708 100.718 28.3712 100.866 29.0215C101.039 29.6718 101.36 30.1345 101.83 30.4097C102.3 30.6848 102.992 30.8224 103.907 30.8224C104.649 30.8224 105.687 30.7973 107.022 30.7473C108.382 30.6973 109.853 30.5847 111.435 30.4097L112.14 35.1369C111.275 35.5871 110.348 35.9373 109.359 36.1874C108.37 36.4375 107.344 36.6126 106.28 36.7126C105.242 36.8127 104.167 36.8627 103.054 36.8627C100.483 36.8627 98.4182 36.5 96.8606 35.7747C95.3029 35.0494 94.178 33.9738 93.4857 32.5482C92.8182 31.0975 92.4844 29.3091 92.4844 27.1831C92.4844 24.707 92.8305 22.7435 93.5228 21.2928C94.2151 19.8171 95.3277 18.7541 96.8606 18.1038C98.4182 17.4535 100.47 17.1284 103.017 17.1284Z" fill="white"/>
<path d="M121.109 17.6536L122.073 21.4804L122.815 21.9306V36.4125H115.027V17.6536H121.109ZM130.121 17.1284L129.454 24.3318H127.488C126.821 24.3318 126.066 24.3693 125.226 24.4443C124.41 24.4944 123.334 24.6319 121.999 24.857L121.554 20.6175C122.766 19.442 124.014 18.5666 125.3 17.9913C126.586 17.416 127.834 17.1284 129.046 17.1284H130.121Z" fill="white"/>
<path d="M137.878 17.6536L138.842 21.4804L139.584 21.9306V36.4125H131.796V17.6536H137.878ZM146.89 17.1284L146.222 24.3318H144.257C143.589 24.3318 142.835 24.3693 141.994 24.4443C141.178 24.4944 140.103 24.6319 138.768 24.857L138.323 20.6175C139.534 19.442 140.783 18.5666 142.069 17.9913C143.354 17.416 144.603 17.1284 145.814 17.1284H146.89Z" fill="white"/>
<path d="M170 17.2628L164.103 35.4964C163.782 36.5219 163.312 37.5849 162.694 38.6854C162.101 39.786 160.481 41.493 159.708 42.2746C158.744 43.1501 158.367 43.2844 156.618 43.8379C154.869 44.3913 153.682 43.8129 151.754 43.4127L150.437 39.5392C151.676 38.8227 153.979 38.4103 154.869 37.8601C155.784 37.3348 156.476 36.5469 156.946 35.4964L158.318 32.495C158.59 31.8697 158.825 31.0693 159.022 30.0939C159.245 29.1184 159.418 28.293 159.542 27.6177L161.73 17.2628H170ZM155.759 17.2628L157.947 27.6177C158.046 28.193 158.132 28.7808 158.207 29.381C158.281 29.9813 158.355 30.5691 158.429 31.1444H159.542L157.131 36.0217H155.425C154.832 36.0217 154.312 35.8591 153.867 35.534C153.447 35.1838 153.15 34.7336 152.977 34.1833L147.489 17.2628H155.759Z" fill="white"/>
<path fill-rule="evenodd" clip-rule="evenodd" d="M20.6308 28.9106C30.3114 18.3679 37.1821 22.0033 35.852 33.2375C34.522 44.4717 25.457 52.6358 15.6036 51.4693C5.75206 50.3029 -2.53876 39.9149 0.771855 28.0406C3.9534 16.6292 18.8292 16.8461 20.6308 28.9106Z" fill="white"/>
<path d="M32.3369 4.90383C23.9154 9.84489 23.8424 27.3191 22.5065 28.8176C21.6027 29.5901 21.4159 29.4574 20.0521 29.3407C16.1936 26.7505 20.3536 25.8608 23.1401 15.3967C26.6233 2.31654 32.111 -0.59258 36.3047 1.69784C39.6597 3.53017 34.3288 3.73511 32.3369 4.90383Z" fill="white"/>
</svg>
